<svg width="38" height="38" viewBox="0 0 38 38" fill="none" xmlns="http://www.w3.org/2000/svg">
<path d="M38 19C38 29.4934 29.4934 38 19 38C8.50659 38 0 29.4934 0 19C0 8.50659 8.50659 0 19 0C29.4934 0 38 8.50659 38 19Z" fill="black"/>
<path d="M27.4375 26.4844V30H11.875V27L19.2344 19.1094C19.974 18.2865 20.5573 17.5625 20.9844 16.9375C21.4115 16.3021 21.7188 15.7344 21.9062 15.2344C22.1042 14.724 22.2031 14.2396 22.2031 13.7812C22.2031 13.0938 22.0885 12.5052 21.8594 12.0156C21.6302 11.5156 21.2917 11.1302 20.8438 10.8594C20.4062 10.5885 19.8646 10.4531 19.2188 10.4531C18.5312 10.4531 17.9375 10.6198 17.4375 10.9531C16.9479 11.2865 16.5729 11.75 16.3125 12.3438C16.0625 12.9375 15.9375 13.6094 15.9375 14.3594H11.4219C11.4219 13.0052 11.7448 11.7656 12.3906 10.6406C13.0365 9.50521 13.9479 8.60417 15.125 7.9375C16.3021 7.26042 17.6979 6.92188 19.3125 6.92188C20.9062 6.92188 22.25 7.18229 23.3438 7.70312C24.4479 8.21354 25.2812 8.95312 25.8438 9.92188C26.4167 10.8802 26.7031 12.026 26.7031 13.3594C26.7031 14.1094 26.5833 14.8438 26.3438 15.5625C26.1042 16.2708 25.7604 16.9792 25.3125 17.6875C24.875 18.3854 24.3438 19.0938 23.7188 19.8125C23.0938 20.5312 22.401 21.276 21.6406 22.0469L17.6875 26.4844H27.4375Z" fill="white"/>
</svg>
