<svg width="38" height="38" viewBox="0 0 38 38" fill="none" xmlns="http://www.w3.org/2000/svg">
<circle cx="19" cy="19" r="19" fill="black"/>
<path d="M16.4844 16.6719H18.8906C19.6615 16.6719 20.2969 16.5417 20.7969 16.2812C21.2969 16.0104 21.6667 15.6354 21.9062 15.1562C22.1562 14.6667 22.2812 14.099 22.2812 13.4531C22.2812 12.8698 22.1667 12.3542 21.9375 11.9062C21.7188 11.4479 21.3802 11.0938 20.9219 10.8438C20.4635 10.5833 19.8854 10.4531 19.1875 10.4531C18.6354 10.4531 18.125 10.5625 17.6562 10.7812C17.1875 11 16.8125 11.3073 16.5312 11.7031C16.25 12.099 16.1094 12.5781 16.1094 13.1406H11.5938C11.5938 11.8906 11.9271 10.8021 12.5938 9.875C13.2708 8.94792 14.1771 8.22396 15.3125 7.70312C16.4479 7.18229 17.6979 6.92188 19.0625 6.92188C20.6042 6.92188 21.9531 7.17188 23.1094 7.67188C24.2656 8.16146 25.1667 8.88542 25.8125 9.84375C26.4583 10.8021 26.7812 11.9896 26.7812 13.4062C26.7812 14.125 26.6146 14.8229 26.2812 15.5C25.9479 16.1667 25.4688 16.7708 24.8438 17.3125C24.2292 17.8438 23.4792 18.2708 22.5938 18.5938C21.7083 18.9062 20.7135 19.0625 19.6094 19.0625H16.4844V16.6719ZM16.4844 20.0938V17.7656H19.6094C20.849 17.7656 21.9375 17.9062 22.875 18.1875C23.8125 18.4688 24.599 18.875 25.2344 19.4062C25.8698 19.9271 26.349 20.5469 26.6719 21.2656C26.9948 21.974 27.1562 22.7604 27.1562 23.625C27.1562 24.6875 26.9531 25.6354 26.5469 26.4688C26.1406 27.2917 25.5677 27.9896 24.8281 28.5625C24.099 29.1354 23.2448 29.5729 22.2656 29.875C21.2865 30.1667 20.2188 30.3125 19.0625 30.3125C18.1042 30.3125 17.1615 30.1823 16.2344 29.9219C15.3177 29.651 14.4844 29.25 13.7344 28.7188C12.9948 28.1771 12.401 27.5 11.9531 26.6875C11.5156 25.8646 11.2969 24.8906 11.2969 23.7656H15.8125C15.8125 24.349 15.9583 24.8698 16.25 25.3281C16.5417 25.7865 16.9427 26.1458 17.4531 26.4062C17.974 26.6667 18.5521 26.7969 19.1875 26.7969C19.9062 26.7969 20.5208 26.6667 21.0312 26.4062C21.5521 26.1354 21.9479 25.7604 22.2188 25.2812C22.5 24.7917 22.6406 24.224 22.6406 23.5781C22.6406 22.7448 22.4896 22.0781 22.1875 21.5781C21.8854 21.0677 21.4531 20.6927 20.8906 20.4531C20.3281 20.2135 19.6615 20.0938 18.8906 20.0938H16.4844Z" fill="white"/>
</svg>
