<svg width="38" height="38" viewBox="0 0 38 38" fill="none" xmlns="http://www.w3.org/2000/svg">
<circle cx="19" cy="19" r="19" fill="black"/>
<path d="M16.1094 19.6406L12.5156 18.7812L13.8125 7.25H26.5938V10.8906H17.5156L16.9531 15.9375C17.2552 15.7604 17.7135 15.5729 18.3281 15.375C18.9427 15.1667 19.6302 15.0625 20.3906 15.0625C21.4948 15.0625 22.474 15.2344 23.3281 15.5781C24.1823 15.9219 24.9062 16.4219 25.5 17.0781C26.1042 17.7344 26.5625 18.5365 26.875 19.4844C27.1875 20.4323 27.3438 21.5052 27.3438 22.7031C27.3438 23.7135 27.1875 24.6771 26.875 25.5938C26.5625 26.5 26.0885 27.3125 25.4531 28.0312C24.8177 28.7396 24.0208 29.2969 23.0625 29.7031C22.1042 30.1094 20.9688 30.3125 19.6562 30.3125C18.6771 30.3125 17.7292 30.1667 16.8125 29.875C15.9062 29.5833 15.0885 29.151 14.3594 28.5781C13.6406 28.0052 13.0625 27.3125 12.625 26.5C12.1979 25.6771 11.974 24.7396 11.9531 23.6875H16.4219C16.4844 24.3333 16.651 24.8906 16.9219 25.3594C17.2031 25.8177 17.5729 26.1719 18.0312 26.4219C18.4896 26.6719 19.026 26.7969 19.6406 26.7969C20.2135 26.7969 20.7031 26.6875 21.1094 26.4688C21.5156 26.25 21.8438 25.9479 22.0938 25.5625C22.3438 25.1667 22.526 24.7083 22.6406 24.1875C22.7656 23.6562 22.8281 23.0833 22.8281 22.4688C22.8281 21.8542 22.7552 21.2969 22.6094 20.7969C22.4635 20.2969 22.2396 19.8646 21.9375 19.5C21.6354 19.1354 21.25 18.8542 20.7812 18.6562C20.3229 18.4583 19.7865 18.3594 19.1719 18.3594C18.3385 18.3594 17.6927 18.4896 17.2344 18.75C16.7865 19.0104 16.4115 19.3073 16.1094 19.6406Z" fill="white"/>
</svg>
