<svg width="38" height="38" viewBox="0 0 38 38" fill="none" xmlns="http://www.w3.org/2000/svg">
<circle cx="19" cy="19" r="19" fill="black"/>
<path d="M23.4844 7.01562H24.1406V10.6094H23.875C22.6875 10.6094 21.6302 10.7865 20.7031 11.1406C19.776 11.4948 18.9896 12 18.3438 12.6562C17.7083 13.3021 17.2188 14.0833 16.875 15C16.5417 15.9167 16.375 16.9427 16.375 18.0781V21.8594C16.375 22.6719 16.4531 23.3906 16.6094 24.0156C16.776 24.6302 17.0104 25.1458 17.3125 25.5625C17.625 25.9688 17.9896 26.276 18.4062 26.4844C18.8229 26.6823 19.2917 26.7812 19.8125 26.7812C20.3021 26.7812 20.7448 26.6771 21.1406 26.4688C21.5469 26.2604 21.8906 25.9688 22.1719 25.5938C22.4635 25.2083 22.6823 24.7604 22.8281 24.25C22.9844 23.7292 23.0625 23.1615 23.0625 22.5469C23.0625 21.9323 22.9844 21.3646 22.8281 20.8438C22.6823 20.3229 22.4635 19.875 22.1719 19.5C21.8802 19.1146 21.526 18.8177 21.1094 18.6094C20.6927 18.401 20.224 18.2969 19.7031 18.2969C18.9948 18.2969 18.3698 18.4635 17.8281 18.7969C17.2969 19.1198 16.8802 19.5365 16.5781 20.0469C16.276 20.5573 16.1146 21.0938 16.0938 21.6562L14.7344 20.7812C14.7656 19.9792 14.9323 19.2188 15.2344 18.5C15.5469 17.7812 15.974 17.1458 16.5156 16.5938C17.0677 16.0312 17.7292 15.5938 18.5 15.2812C19.2708 14.9583 20.1406 14.7969 21.1094 14.7969C22.1719 14.7969 23.1042 15 23.9062 15.4062C24.7188 15.8125 25.3958 16.3698 25.9375 17.0781C26.4792 17.7865 26.8854 18.6042 27.1562 19.5312C27.4271 20.4583 27.5625 21.4479 27.5625 22.5C27.5625 23.6042 27.3802 24.6302 27.0156 25.5781C26.6615 26.526 26.1458 27.3542 25.4688 28.0625C24.8021 28.7708 24 29.3229 23.0625 29.7188C22.125 30.1146 21.0729 30.3125 19.9062 30.3125C18.6979 30.3125 17.599 30.0938 16.6094 29.6562C15.6302 29.2083 14.7865 28.5833 14.0781 27.7812C13.3698 26.9792 12.8229 26.026 12.4375 24.9219C12.0625 23.8177 11.875 22.6094 11.875 21.2969V19.5469C11.875 17.7135 12.1406 16.0365 12.6719 14.5156C13.2135 12.9844 13.9896 11.6615 15 10.5469C16.0104 9.42188 17.2292 8.55208 18.6562 7.9375C20.0833 7.32292 21.6927 7.01562 23.4844 7.01562Z" fill="white"/>
</svg>
