<svg width="38" height="38" viewBox="0 0 38 38" fill="none" xmlns="http://www.w3.org/2000/svg">
<circle cx="19" cy="19" r="19" fill="black"/>
<path d="M27.2031 23.7656C27.2031 25.1927 26.8698 26.3958 26.2031 27.375C25.5365 28.3438 24.6198 29.0781 23.4531 29.5781C22.2969 30.0677 20.9844 30.3125 19.5156 30.3125C18.0469 30.3125 16.7292 30.0677 15.5625 29.5781C14.3958 29.0781 13.474 28.3438 12.7969 27.375C12.1198 26.3958 11.7812 25.1927 11.7812 23.7656C11.7812 22.8073 11.974 21.9427 12.3594 21.1719C12.7448 20.3906 13.2812 19.724 13.9688 19.1719C14.6667 18.6094 15.4844 18.1823 16.4219 17.8906C17.3594 17.5885 18.3802 17.4375 19.4844 17.4375C20.9635 17.4375 22.2865 17.6979 23.4531 18.2188C24.6198 18.7396 25.5365 19.474 26.2031 20.4219C26.8698 21.3698 27.2031 22.4844 27.2031 23.7656ZM22.6719 23.4688C22.6719 22.7708 22.5365 22.1719 22.2656 21.6719C22.0052 21.1615 21.6354 20.7708 21.1562 20.5C20.6771 20.2292 20.1198 20.0938 19.4844 20.0938C18.849 20.0938 18.2917 20.2292 17.8125 20.5C17.3333 20.7708 16.9583 21.1615 16.6875 21.6719C16.4271 22.1719 16.2969 22.7708 16.2969 23.4688C16.2969 24.1562 16.4271 24.75 16.6875 25.25C16.9583 25.75 17.3333 26.1354 17.8125 26.4062C18.3021 26.6667 18.8698 26.7969 19.5156 26.7969C20.1615 26.7969 20.7188 26.6667 21.1875 26.4062C21.6667 26.1354 22.0312 25.75 22.2812 25.25C22.5417 24.75 22.6719 24.1562 22.6719 23.4688ZM26.7188 13.2812C26.7188 14.4375 26.4115 15.4635 25.7969 16.3594C25.1823 17.2448 24.3281 17.9375 23.2344 18.4375C22.151 18.9375 20.9115 19.1875 19.5156 19.1875C18.1094 19.1875 16.8594 18.9375 15.7656 18.4375C14.6719 17.9375 13.8177 17.2448 13.2031 16.3594C12.5885 15.4635 12.2812 14.4375 12.2812 13.2812C12.2812 11.9062 12.5885 10.75 13.2031 9.8125C13.8281 8.86458 14.6823 8.14583 15.7656 7.65625C16.8594 7.16667 18.099 6.92188 19.4844 6.92188C20.8906 6.92188 22.1354 7.16667 23.2188 7.65625C24.3125 8.14583 25.1667 8.86458 25.7812 9.8125C26.4062 10.75 26.7188 11.9062 26.7188 13.2812ZM22.2188 13.4844C22.2188 12.8698 22.1094 12.3385 21.8906 11.8906C21.6719 11.4323 21.3594 11.0781 20.9531 10.8281C20.5573 10.5781 20.0677 10.4531 19.4844 10.4531C18.9219 10.4531 18.4375 10.5729 18.0312 10.8125C17.6354 11.0521 17.3281 11.401 17.1094 11.8594C16.901 12.3073 16.7969 12.849 16.7969 13.4844C16.7969 14.099 16.901 14.6406 17.1094 15.1094C17.3281 15.5677 17.6406 15.9271 18.0469 16.1875C18.4531 16.4479 18.9427 16.5781 19.5156 16.5781C20.0885 16.5781 20.5729 16.4479 20.9688 16.1875C21.375 15.9271 21.6823 15.5677 21.8906 15.1094C22.1094 14.6406 22.2188 14.099 22.2188 13.4844Z" fill="white"/>
</svg>
